<svg xmlns="http://www.w3.org/2000/svg" width="840" height="420" viewBox="0 0 840 420">
<rect width="100%" height="100%" fill="#ffffff"/>
<text x="70" y="24" font-family="Arial" font-size="18" fill="#111827">gflops_mpi_matrix_4096</text>
<line x1="70" y1="340" x2="812" y2="340" stroke="#111827"/>
<line x1="70" y1="36" x2="70" y2="340" stroke="#111827"/>
<line x1="70" y1="340.0" x2="812" y2="340.0" stroke="#e5e7eb"/>
<text x="12" y="344.0" font-family="Arial" font-size="12" fill="#4b5563">0.0</text>
<line x1="70" y1="264.0" x2="812" y2="264.0" stroke="#e5e7eb"/>
<text x="12" y="268.0" font-family="Arial" font-size="12" fill="#4b5563">2.8</text>
<line x1="70" y1="188.0" x2="812" y2="188.0" stroke="#e5e7eb"/>
<text x="12" y="192.0" font-family="Arial" font-size="12" fill="#4b5563">5.6</text>
<line x1="70" y1="112.0" x2="812" y2="112.0" stroke="#e5e7eb"/>
<text x="12" y="116.0" font-family="Arial" font-size="12" fill="#4b5563">8.4</text>
<line x1="70" y1="36.0" x2="812" y2="36.0" stroke="#e5e7eb"/>
<text x="12" y="40.0" font-family="Arial" font-size="12" fill="#4b5563">11.2</text>
<rect x="88.0" y="225.0" width="163.0" height="115.0" fill="#2563eb"/>
<text x="169.5" y="219.0" text-anchor="middle" font-family="Arial" font-size="12" fill="#111827">4.3</text>
<text x="169.5" y="358" text-anchor="middle" font-family="Arial" font-size="11" fill="#374151">1 nodo</text>
<rect x="269.0" y="84.8" width="163.0" height="255.2" fill="#059669"/>
<text x="350.5" y="78.8" text-anchor="middle" font-family="Arial" font-size="12" fill="#111827">9.4</text>
<text x="350.5" y="358" text-anchor="middle" font-family="Arial" font-size="11" fill="#374151">4 nodos</text>
<rect x="450.0" y="36.0" width="163.0" height="304.0" fill="#d97706"/>
<text x="531.5" y="30.0" text-anchor="middle" font-family="Arial" font-size="12" fill="#111827">11.2</text>
<text x="531.5" y="358" text-anchor="middle" font-family="Arial" font-size="11" fill="#374151">4 nodos, 2 ppn</text>
<rect x="631.0" y="39.4" width="163.0" height="300.6" fill="#7c3aed"/>
<text x="712.5" y="33.4" text-anchor="middle" font-family="Arial" font-size="12" fill="#111827">11.1</text>
<text x="712.5" y="358" text-anchor="middle" font-family="Arial" font-size="11" fill="#374151">8 nodos</text>
<text x="70" y="402" font-family="Arial" font-size="12" fill="#4b5563">GFLOPS medios por escenario</text>
</svg>
