<svg xmlns="http://www.w3.org/2000/svg" width="840" height="420" viewBox="0 0 840 420">
<rect width="100%" height="100%" fill="#ffffff"/>
<text x="70" y="24" font-family="Arial" font-size="18" fill="#111827">gflops_mpi_matrix_1024</text>
<line x1="70" y1="340" x2="812" y2="340" stroke="#111827"/>
<line x1="70" y1="36" x2="70" y2="340" stroke="#111827"/>
<line x1="70" y1="340.0" x2="812" y2="340.0" stroke="#e5e7eb"/>
<text x="12" y="344.0" font-family="Arial" font-size="12" fill="#4b5563">0.0</text>
<line x1="70" y1="264.0" x2="812" y2="264.0" stroke="#e5e7eb"/>
<text x="12" y="268.0" font-family="Arial" font-size="12" fill="#4b5563">3.5</text>
<line x1="70" y1="188.0" x2="812" y2="188.0" stroke="#e5e7eb"/>
<text x="12" y="192.0" font-family="Arial" font-size="12" fill="#4b5563">6.9</text>
<line x1="70" y1="112.0" x2="812" y2="112.0" stroke="#e5e7eb"/>
<text x="12" y="116.0" font-family="Arial" font-size="12" fill="#4b5563">10.4</text>
<line x1="70" y1="36.0" x2="812" y2="36.0" stroke="#e5e7eb"/>
<text x="12" y="40.0" font-family="Arial" font-size="12" fill="#4b5563">13.8</text>
<rect x="88.0" y="145.0" width="163.0" height="195.0" fill="#2563eb"/>
<text x="169.5" y="139.0" text-anchor="middle" font-family="Arial" font-size="12" fill="#111827">8.9</text>
<text x="169.5" y="358" text-anchor="middle" font-family="Arial" font-size="11" fill="#374151">1 nodo</text>
<rect x="269.0" y="36.0" width="163.0" height="304.0" fill="#059669"/>
<text x="350.5" y="30.0" text-anchor="middle" font-family="Arial" font-size="12" fill="#111827">13.8</text>
<text x="350.5" y="358" text-anchor="middle" font-family="Arial" font-size="11" fill="#374151">4 nodos</text>
<rect x="450.0" y="63.6" width="163.0" height="276.4" fill="#d97706"/>
<text x="531.5" y="57.6" text-anchor="middle" font-family="Arial" font-size="12" fill="#111827">12.6</text>
<text x="531.5" y="358" text-anchor="middle" font-family="Arial" font-size="11" fill="#374151">4 nodos, 2 ppn</text>
<rect x="631.0" y="93.2" width="163.0" height="246.8" fill="#7c3aed"/>
<text x="712.5" y="87.2" text-anchor="middle" font-family="Arial" font-size="12" fill="#111827">11.2</text>
<text x="712.5" y="358" text-anchor="middle" font-family="Arial" font-size="11" fill="#374151">8 nodos</text>
<text x="70" y="402" font-family="Arial" font-size="12" fill="#4b5563">GFLOPS medios por escenario</text>
</svg>
